<svg width="306" height="91" viewBox="0 0 306 91" fill="none" xmlns="http://www.w3.org/2000/svg">
<path d="M132.952 22.6738V57.8056H127.143V54.9481C125.598 57.1492 122.881 58.3676 119.696 58.3676C113.232 58.3676 108.454 53.2145 108.454 46.2353C108.454 39.256 113.232 34.1035 119.696 34.1035C122.647 34.1035 124.942 35.04 126.628 36.8667V22.6738H132.952ZM120.867 39.8181C117.494 39.8181 114.871 42.3943 114.871 46.1884C114.871 50.0762 117.447 52.605 120.867 52.605C124.052 52.605 126.722 50.4038 126.722 46.2347C126.722 42.1136 124.052 39.8181 120.867 39.8181Z" fill="black"/>
<path d="M160.544 57.805H154.267V44.3148C154.267 41.6448 152.534 39.8181 149.958 39.8181C147.382 39.8181 145.555 41.6448 145.555 44.3148V57.805H139.231V22.6738H145.555V36.586C147.101 35.04 149.35 34.1035 151.925 34.1035C157.171 34.1035 160.544 37.8038 160.544 43.4246V57.805Z" fill="black"/>
<path d="M177.738 34.1035C182.28 34.1035 185.794 36.2584 187.807 39.8181L183.405 43.2376C181.953 41.1296 180.267 39.8649 177.83 39.8649C174.271 39.8649 171.741 42.5819 171.741 46.1884C171.741 49.8887 174.271 52.5593 177.83 52.5593C180.22 52.5593 181.906 51.3403 183.405 49.2323L187.807 52.605C185.794 56.1652 182.233 58.3676 177.738 58.3676C170.945 58.5077 165.231 52.8863 165.324 46.1884C165.325 39.3967 170.852 34.1035 177.738 34.1035Z" fill="black"/>
<path d="M197.086 48.3426C197.835 51.2933 200.223 52.9331 203.596 52.9331C205.892 52.9331 208.047 52.1367 210.061 50.5907L212.684 54.8999C209.921 57.1954 206.829 58.3663 203.41 58.3663C196.243 58.507 190.575 52.9325 190.716 46.234C190.575 39.5361 196.149 33.9616 202.847 34.1022C209.264 34.1022 213.761 38.8334 213.761 44.8755C213.761 46.0002 213.621 47.1705 213.339 48.3414H197.086V48.3426ZM207.625 43.8928C207.578 41.0352 205.376 39.2085 202.613 39.2085C199.943 39.2085 197.788 41.0352 197.086 43.8928H207.625Z" fill="black"/>
<path d="M239.994 57.805H233.717V44.2679C233.717 41.5979 231.984 39.7712 229.408 39.7712C226.832 39.7712 225.005 41.5979 225.005 44.2679V57.805H218.68V34.6186H224.489V36.7267C226.129 35.0869 228.517 34.1035 231.282 34.1035C236.667 34.1035 239.994 37.8038 239.994 43.4246V57.805Z" fill="black"/>
<path d="M260.981 57.8052C259.482 58.1797 258.031 58.3672 256.624 58.3672C250.77 58.3672 247.35 55.4628 247.35 49.6545V39.9589H243.697V34.6189H247.35V28.7637H253.673V34.6189H260.232V39.9589H253.673V49.0925C253.673 51.7156 254.986 52.6996 257.983 52.6996C258.358 52.6996 259.341 52.6527 260.981 52.512V57.8052H260.981Z" fill="black"/>
<path d="M270.164 48.3426C270.914 51.2933 273.302 52.9331 276.675 52.9331C278.97 52.9331 281.126 52.1367 283.139 50.5907L285.763 54.8999C282.999 57.1954 279.908 58.3663 276.488 58.3663C269.322 58.507 263.653 52.9325 263.795 46.234C263.653 39.5361 269.228 33.9616 275.926 34.1022C282.343 34.1022 286.84 38.8334 286.84 44.8755C286.84 46.0002 286.7 47.1705 286.418 48.3414H270.164V48.3426ZM280.704 43.8928C280.657 41.0352 278.455 39.2085 275.691 39.2085C273.021 39.2085 270.867 41.0352 270.164 43.8928H280.704Z" fill="black"/>
<path d="M306 40.1931H304.313C300.519 40.1931 298.084 42.2542 298.084 46.2352V57.8056H291.76V34.6186H297.568V37.3824C299.114 35.4625 301.362 34.3379 303.938 34.3379C304.735 34.3379 305.391 34.4317 306 34.6186V40.1931Z" fill="black"/>
<path d="M214.2 76.3947C214.2 75.9036 214.241 75.4131 214.322 74.9375H213.075H211.514H210.267C210.185 75.4131 210.144 75.9036 210.144 76.3947C210.144 76.8857 210.185 77.3762 210.269 77.8728H211.516H213.079H214.326C214.241 77.3756 214.2 76.8851 214.2 76.3947Z" fill="black"/>
<path d="M165.547 69.1055H167.167V77.474C167.167 80.1323 168.746 81.5444 171.01 81.5444C173.251 81.5444 174.809 80.1323 174.809 77.474V69.1055H176.429V77.3697C176.429 80.9627 174.145 83.0393 171.01 83.0393C167.811 83.0393 165.547 80.9627 165.547 77.3697V69.1055Z" fill="black"/>
<path d="M190.963 69.1072V83.0416H190.382L181.66 72.5342V82.8133H180.041V68.8789H180.621L189.344 79.4073V69.1072H190.963Z" fill="black"/>
<path d="M196.36 69.1055H194.741V82.8116H196.36V69.1055Z" fill="black"/>
<path d="M200.118 69.1055H201.738V81.3575H208.237V82.8116H200.118V69.1055Z" fill="black"/>
<path d="M217.268 69.1055H226.052V70.5596H218.888V74.754H224.37V76.2081H218.888V81.3575H226.301V82.8116H217.268V69.1055Z" fill="black"/>
<path d="M229.019 69.1055H233.837C236.495 69.1055 238.22 70.7668 238.22 73.0723C238.22 75.419 236.495 77.0798 233.837 77.0798H230.639V82.8116H229.019V69.1055ZM233.796 75.6263C235.54 75.6263 236.536 74.609 236.536 73.0926C236.536 71.5978 235.54 70.5596 233.796 70.5596H230.639V75.6269H233.796V75.6263Z" fill="black"/>
<path d="M240.917 69.1055H249.492V70.5596H242.537V75.2734H248.309V76.7479H242.537V82.8116H240.917V69.1055Z" fill="black"/>
<path d="M251.797 69.1055H253.417V81.3575H259.917V82.8116H251.797V69.1055Z" fill="black"/>
<path d="M82.4957 65.6509C81.5444 65.1487 80.6523 64.5601 79.8238 63.9167C75.0957 72.7097 67.0153 79.7062 56.6911 82.8142C46.3762 85.9229 35.7676 84.5533 26.9654 79.824C18.1638 75.0947 11.1673 67.0136 8.05923 56.6901C4.95118 46.3659 6.32876 35.7678 11.0488 26.9644C15.788 18.1634 23.8678 11.1669 34.1827 8.0582C44.5174 4.94213 55.1069 6.31787 63.898 11.0552C64.257 10.0083 64.6802 9.02676 65.1923 8.07671C65.7019 7.14516 66.2811 6.2426 66.9338 5.41531C56.6967 -0.0734368 44.3613 -1.67743 32.3412 1.93711C20.3292 5.56152 10.9248 13.7049 5.41695 23.9402C-0.0742593 34.1867 -1.67702 46.5134 1.9369 58.5322C5.56131 70.5443 13.7059 79.9486 23.94 85.4571C34.1871 90.9477 46.5224 92.5517 58.5332 88.9372C70.5546 85.314 79.949 77.1682 85.4569 66.9334C84.418 66.5849 83.4365 66.1617 82.4957 65.6509Z" fill="black"/>
<path d="M19.5944 45.2676C19.5944 40.7412 20.7635 36.4943 22.808 32.7984L28.0833 36.5943C28.5682 35.6097 29.1197 34.6899 29.7459 33.8225C30.3714 32.9551 31.071 32.142 31.82 31.4041L21.1861 23.7852C16.1095 29.5015 13.0298 37.0311 13.0298 45.2676C13.0298 56.11 18.3588 65.7049 26.5342 71.5811V71.5935C26.5342 71.5935 26.5342 71.5873 26.5397 71.5873C27.0444 70.5737 27.6033 69.6452 28.2486 68.7476C28.8877 67.8623 29.6071 67.027 30.3813 66.2645C23.8481 61.5814 19.5944 53.9224 19.5944 45.2676Z" fill="#00889A"/>
<path d="M68.4219 68.4102V68.4195H68.4126L68.4219 68.4102Z" fill="black"/>
<path d="M52.6336 46.0987C52.2098 47.1111 51.7162 48.0642 51.1456 48.9674C50.5749 49.8718 49.9265 50.7269 49.2245 51.5098L54.4677 54.843C52.1178 57.0744 48.9401 58.4433 45.4415 58.4433C38.2143 58.4433 32.3579 52.6023 32.3319 45.3806C31.29 45.198 30.2165 45.1036 29.1468 45.1055C28.0777 45.1073 27.0079 45.2005 25.9203 45.3776C25.945 56.1397 34.6756 64.855 45.4421 64.855C53.5392 64.855 60.4845 59.9258 63.4414 52.904C63.2841 52.8047 52.6336 46.0987 52.6336 46.0987Z" fill="#00CDDA"/>
<path d="M63.5648 38.003L63.5278 38.0153C62.5198 38.2362 61.5179 38.5502 60.5407 38.937C59.5388 39.3429 58.5795 39.8284 57.627 40.412C55.6911 35.6303 51.0074 32.2496 45.5304 32.2249V32.1761C45.3583 31.1064 45.2663 30.0552 45.2725 28.9922C45.2725 27.9225 45.3706 26.8527 45.5489 25.8145C53.699 25.8447 60.6764 30.8788 63.5648 38.003Z" fill="#00FFE0"/>
<path d="M60.5111 16.6074C59.8535 17.468 59.2575 18.3959 58.7412 19.3675C58.231 20.3324 57.8004 21.3404 57.4506 22.4096C65.6618 26.7311 71.2554 35.3482 71.2554 45.269C71.2554 54.3969 66.5224 62.4181 59.3803 67.0093V67.016C59.442 67.1573 59.5031 67.2986 59.5648 67.4337C59.9522 68.2887 60.3945 69.1056 60.9103 69.8989C61.3902 70.6361 61.9128 71.3431 62.5025 72.0254C62.6444 72.1914 62.7857 72.3506 62.9393 72.5171H62.9455C71.8884 66.7576 77.8201 56.7017 77.8201 45.269C77.8207 32.8349 70.8013 22.0295 60.5111 16.6074Z" fill="#005A6D"/>
</svg>
